<?xml version="1.0" standalone="no"?>
<!DOCTYPE svg PUBLIC "-//W3C//DTD SVG 20010904//EN"
 "http://www.w3.org/TR/2001/REC-SVG-20010904/DTD/svg10.dtd">
<svg version="1.0" xmlns="http://www.w3.org/2000/svg"
 width="628.000000pt" height="628.000000pt" viewBox="0 0 628.000000 628.000000"
 preserveAspectRatio="xMidYMid meet">
<metadata>
Created by potrace 1.14, written by Peter Selinger 2001-2017
</metadata>
<g transform="translate(0.000000,628.000000) scale(0.100000,-0.100000)"
fill="#000000" stroke="none">
<path d="M1795 5535 c-156 -91 -210 -128 -209 -142 0 -10 26 -146 58 -303 l58
-285 -54 -120 -55 -120 -144 -13 c-143 -13 -144 -13 -221 -58 l-78 -46 -2
-231 -3 -232 205 -255 205 -256 74 -248 73 -249 -61 -230 -61 -229 136 -237
c74 -130 141 -240 148 -246 7 -5 113 -37 234 -69 l222 -59 177 -189 177 -189
116 -301 c71 -181 125 -307 136 -315 10 -8 101 -61 201 -119 l182 -105 80 46
c85 49 77 39 241 276 3 5 65 2 138 -6 l132 -14 225 -200 c124 -111 230 -201
235 -201 9 0 419 236 432 249 4 3 -20 141 -53 305 l-61 298 54 122 55 121 144
13 c143 13 144 13 221 58 l78 46 2 231 3 232 -205 255 -205 256 -74 248 -73
249 61 230 61 229 -136 237 c-74 130 -141 241 -148 246 -7 6 -113 37 -234 69
l-222 59 -177 189 -177 189 -116 301 c-71 181 -125 307 -136 315 -10 8 -101
61 -201 119 l-182 105 -80 -46 c-85 -49 -77 -39 -241 -276 -3 -5 -65 -2 -138
6 l-132 14 -225 200 c-124 111 -231 201 -238 200 -7 0 -106 -56 -222 -124z
m431 -65 c108 -96 207 -184 221 -195 l25 -20 -76 -44 -75 -43 -221 198 c-147
130 -218 200 -211 207 15 15 125 77 133 74 4 -1 96 -81 204 -177z m-186 -66
c96 -86 199 -176 228 -202 l54 -46 176 -18 c176 -17 177 -17 194 3 9 11 63 85
118 165 56 79 105 144 109 144 5 0 93 -49 197 -109 l188 -110 117 -303 117
-303 137 -146 c244 -261 196 -230 455 -299 123 -33 224 -61 226 -63 1 -1 63
-109 138 -240 l137 -237 -61 -230 -61 -229 74 -250 75 -251 206 -257 206 -258
0 -222 0 -223 -22 -1 c-13 0 -105 -8 -206 -17 l-183 -17 -75 -167 -75 -167 61
-297 c47 -233 58 -299 48 -306 -7 -4 -68 -40 -136 -79 l-123 -71 -27 24 c-33
30 -390 346 -413 365 -11 9 -72 20 -160 28 -79 8 -160 17 -180 20 l-36 5 -119
-170 c-111 -160 -119 -169 -139 -156 -11 7 -96 57 -190 111 -93 54 -171 99
-173 100 -2 2 -56 140 -121 307 l-117 303 -180 191 -179 190 -223 60 c-123 32
-227 61 -231 64 -4 3 -68 112 -143 242 l-137 237 61 230 61 230 -73 248 -73
248 -204 253 -203 254 0 229 0 229 28 1 c15 0 105 8 201 17 l175 17 48 105
c93 204 101 225 99 240 -2 8 -29 143 -62 300 -32 157 -55 286 -51 288 4 1 63
36 132 77 69 40 127 74 130 74 3 1 84 -69 180 -155z m1245 21 c83 -48 153 -90
158 -94 4 -4 -25 -26 -64 -48 l-71 -41 -181 105 c-100 57 -186 108 -190 113
-5 4 24 26 65 48 l73 41 30 -19 c16 -10 98 -57 180 -105z m293 -404 c62 -159
112 -293 112 -298 0 -9 -122 -83 -138 -83 -9 0 -238 588 -231 594 13 13 126
76 135 76 6 0 61 -130 122 -289z m-962 213 c119 -8 125 -12 89 -61 -16 -21
-29 -39 -29 -40 -1 -1 -78 6 -171 15 l-170 17 75 43 c43 24 84 40 95 38 11 -3
61 -8 111 -12z m1261 -709 c127 -134 170 -185 160 -192 -22 -17 -124 -73 -133
-73 -12 0 -339 349 -339 361 0 8 123 87 135 87 3 0 83 -82 177 -183z m-2302 3
c-4 -13 -12 -28 -19 -34 -6 -6 -74 -17 -151 -23 -77 -7 -160 -14 -185 -17
l-45 -5 67 40 c59 35 78 41 160 49 51 5 112 10 136 11 41 1 43 0 37 -21z
m2714 -257 l214 -58 -73 -41 -72 -42 -214 57 c-118 32 -214 60 -214 64 0 9
121 78 135 78 6 0 106 -26 224 -58z m356 -291 c70 -122 128 -228 129 -237 1
-10 -24 -31 -67 -56 -37 -22 -69 -38 -71 -36 -27 35 -268 473 -261 476 6 2 35
19 65 38 30 19 60 35 67 35 6 0 68 -99 138 -220z m135 -277 c-1 -28 -112 -419
-122 -429 -27 -25 -128 -76 -128 -64 0 7 25 105 56 219 l56 208 62 36 c63 37
76 42 76 30z m-96 -490 c28 -87 126 -422 126 -431 0 -5 -31 -26 -69 -47 -39
-22 -68 -41 -66 -43 2 -3 35 14 74 36 l69 40 201 -250 c182 -226 200 -252 184
-263 -10 -6 -43 -26 -74 -43 l-57 -32 -202 252 -202 252 -58 196 c-32 107 -65
219 -73 247 l-16 53 67 39 c37 22 70 40 74 41 3 0 13 -21 22 -47z m524 -1409
c-7 -7 -39 -26 -71 -44 l-57 -32 2 223 3 223 65 38 65 37 3 -216 c2 -165 -1
-220 -10 -229z m-441 -136 c-39 -95 -93 -206 -106 -219 -9 -10 -42 -31 -74
-49 -56 -31 -57 -32 -48 -9 11 30 110 248 122 272 12 21 115 26 106 5z m-97
-240 c0 -2 27 -133 59 -293 33 -159 57 -291 53 -293 -4 -1 -36 -20 -72 -41
-36 -22 -66 -38 -68 -37 -1 2 -27 124 -57 272 -30 148 -57 279 -60 291 -4 18
6 28 62 62 61 36 83 46 83 39z m-1053 -412 c1 -1 -33 -52 -75 -113 -67 -97
-85 -116 -139 -147 -34 -20 -64 -36 -67 -36 -3 0 33 55 81 123 141 201 129
187 166 180 17 -3 33 -6 34 -7z"/>
<path d="M2633 4086 c-137 -45 -234 -152 -285 -316 -21 -67 -23 -93 -22 -255
0 -168 3 -188 31 -296 82 -309 238 -588 454 -813 166 -173 349 -292 509 -331
110 -27 236 -18 322 22 118 55 197 161 239 320 16 60 21 109 21 213 1 227 -50
420 -178 675 -97 195 -180 311 -334 466 -161 162 -275 240 -435 296 -87 31
-256 41 -322 19z m269 -15 c331 -85 695 -459 874 -899 76 -186 106 -321 111
-499 4 -120 2 -167 -12 -230 -20 -93 -61 -184 -107 -237 -33 -38 -36 -39 -115
-44 -207 -12 -437 100 -653 317 -225 225 -392 518 -472 828 -40 156 -50 376
-23 499 29 133 105 267 158 277 58 11 170 5 239 -12z m-315 -43 c-76 -102
-109 -225 -109 -408 -1 -227 50 -420 178 -675 97 -195 180 -311 334 -466 163
-164 282 -245 445 -300 55 -19 91 -24 172 -24 94 0 100 -1 87 -17 -57 -62
-242 -86 -378 -49 -308 84 -618 383 -817 784 -180 364 -220 744 -103 984 38
79 101 150 160 182 54 28 59 26 31 -11z"/>
</g>
</svg>
